<?xml version="1.0" encoding="utf-8"?>
<!-- Generator: Adobe Illustrator 27.8.1, SVG Export Plug-In . SVG Version: 6.00 Build 0)  -->
<svg version="1.1" id="Layer_3" xmlns="http://www.w3.org/2000/svg" xmlns:xlink="http://www.w3.org/1999/xlink" x="0px" y="0px"
	 width="100px" height="100px" viewBox="0 0 100 100" style="enable-background:new 0 0 100 100;" xml:space="preserve">
<style type="text/css">
	.st0{fill:#FFFFFF;}
	.st1{fill:#33CC99;}
</style>
<g>
	<path class="st0" d="M50.1,26.7c-8.1,0-14.6,6.5-14.6,14.6S42,56,50.1,56c8.1,0,14.6-6.5,14.6-14.6C64.7,33.3,58.2,26.7,50.1,26.7z
		"/>
	<path class="st1" d="M76.7,18.4c-1-1.1-2-2.2-3.2-3.2C59.2,2.1,37,3.1,23.9,17.5S11.9,54,26.2,67c0.4,0.3,0.7,0.7,1.1,1
		c8.2,6.8,15,15.1,20.2,24.4c0.5,1,1.5,1.5,2.6,1.5c1.1,0,2.1-0.6,2.6-1.5l0.2-0.5c5.2-9.2,12-17.4,20.1-24.2
		C87.7,55.2,89.4,33,76.7,18.4z M50.1,56c-8.1,0-14.6-6.5-14.6-14.6S42,26.7,50.1,26.7s14.6,6.5,14.6,14.6
		C64.7,49.4,58.2,55.9,50.1,56z"/>
</g>
</svg>
